# xmcd
#
# Track frame offsets: 
#        150
#        23075
#        53075
#        72345
#        94175
#        124141
#        152866
#        179110
#        196794
#        208758
#        234089
#        249000
#
# Disc length: 3527 seconds
#
# Revision: 0
# Processed by: cddbd v1.5.2PL0 Copyright (c) Steve Scherf et al.
# Submitted via: ExactAudioCopyFreeDBPlugin 1.0
#
DISCID=9d0dc50c
DTITLE=The Commodores - Silver COllection
DYEAR=1900
DGENRE=
TTITLE0=Nightshift
TTITLE1=Three Times A lady
TTITLE2=Easy
TTITLE3=Lady (You bring me up)
TTITLE4=Zoom
TTITLE5=Just to be Close To You
TTITLE6=Still
TTITLE7=Sail On
TTITLE8=Machine Gun
TTITLE9=To Hot Ta Trot
TTITLE10=Slippery When Wet
TTITLE11=Brick House
EXTD=
EXTT0=
EXTT1=
EXTT2=
EXTT3=
EXTT4=
EXTT5=
EXTT6=
EXTT7=
EXTT8=
EXTT9=
EXTT10=
EXTT11=
PLAYORDER=
